<svg version="1.1" id="Layer_1" xmlns="http://www.w3.org/2000/svg" xmlns:xlink="http://www.w3.org/1999/xlink" x="0px" y="0px"
	 width="100%" viewBox="0 0 914 1024" enable-background="new 0 0 914 1024" xml:space="preserve">
<path fill="#fff" opacity="1.000000" stroke="none"
	d="
M652.357544,707.337708
	C636.947327,720.488892 620.997986,732.374451 603.602417,742.025208
	C588.249390,750.542847 572.702393,758.955933 556.510437,765.647095
	C540.456726,772.281128 523.724548,777.648804 506.859711,781.841248
	C489.229156,786.224060 471.197571,789.720093 453.135376,791.435181
	C435.178192,793.140320 416.964966,792.284546 398.864197,792.271179
	C392.070435,792.266174 385.273529,791.520691 378.486542,791.001953
	C376.829956,790.875366 375.206726,790.312439 373.568146,789.950134
	C373.573181,789.511169 373.578217,789.072144 373.583252,788.633179
	C378.558563,787.825012 383.516724,786.885620 388.512146,786.230652
	C414.448151,782.829834 439.802032,776.829895 464.346161,767.906250
	C484.764801,760.482605 504.169769,750.870422 522.668823,739.251709
	C540.854004,727.830139 557.558289,714.658997 572.571533,699.494690
	C586.912964,685.008911 599.538086,669.088013 610.599121,651.771484
	C620.455017,636.341553 629.307190,620.489807 635.953857,603.552673
	C642.232300,587.553711 647.737549,571.193604 652.548828,554.690857
	C658.823975,533.166809 662.690857,511.061157 664.778687,488.738892
	C666.123108,474.365356 666.546631,459.898773 667.136536,445.463837
	C667.618591,433.669739 667.940674,421.860779 667.938660,410.058441
	C667.937439,402.960388 667.179443,395.862488 666.742432,388.438446
	C547.246460,388.438446 427.860413,388.438446 308.186035,388.438446
	C308.186035,434.612457 308.186035,480.514709 308.186035,526.952637
	C368.992676,526.952637 429.564850,526.952637 491.331665,526.952637
	C489.996185,533.397156 488.994690,539.159973 487.596100,544.824768
	C479.781982,576.474976 461.913696,601.458313 435.898132,620.541687
	C418.236298,633.497314 398.523315,642.251404 377.138794,647.737915
	C356.325867,653.077820 335.269348,655.211121 313.994354,654.844910
	C289.766266,654.427917 265.953644,650.568542 243.596207,640.741760
	C219.977264,630.360535 200.284790,614.770935 184.156433,594.502380
	C170.989197,577.955017 161.277145,559.637268 154.427048,539.770508
	C149.395691,525.178406 146.255676,510.147217 143.857620,494.846527
	C139.937164,469.832367 139.957779,444.714081 141.455261,419.687073
	C142.954178,394.635834 148.363464,370.164764 157.787994,346.676025
	C167.437439,322.626709 181.131012,301.339844 200.101562,283.701691
	C215.071960,269.782745 232.164490,259.075836 251.569778,252.232697
	C269.059906,246.064926 286.971313,242.875046 305.544952,241.624512
	C329.111877,240.037766 352.021820,242.589859 374.341675,249.515656
	C393.319397,255.404388 410.189728,265.612518 425.711090,278.108551
	C440.021393,289.629578 451.925323,303.345337 463.208710,317.949890
	C515.656372,292.793976 567.914795,267.728851 620.422241,242.544296
	C605.785156,221.594742 589.950623,201.850922 571.565063,184.049362
	C556.355408,169.322815 539.995422,156.147888 522.445251,144.516129
	C511.699890,137.394424 500.341797,130.967209 488.636963,125.579178
	C472.571411,118.183830 456.093140,111.578232 439.448944,105.586311
	C429.189484,101.892906 418.391876,99.451767 407.655365,97.387100
	C393.998352,94.760826 380.205231,92.678802 366.386963,91.092789
	C345.280090,88.670189 324.098877,87.047974 302.821259,89.044525
	C300.399536,89.271767 297.938049,89.075302 295.495026,89.075302
	C295.318542,88.565735 295.142090,88.056168 294.965607,87.546600
	C297.105530,86.470337 299.148499,85.096245 301.400208,84.363441
	C326.535248,76.183388 352.204102,70.077324 378.555603,68.071426
	C398.574249,66.547592 418.793335,65.469391 438.802765,66.509544
	C471.171417,68.192162 502.932953,74.121681 533.766785,84.748383
	C563.069153,94.847275 590.962341,107.739334 616.479065,125.306625
	C631.467163,135.625366 646.410583,146.251282 660.021484,158.270798
	C680.169617,176.063171 697.907166,196.236450 713.627197,218.189407
	C729.943298,240.974686 743.369141,265.365143 754.068970,291.113434
	C762.392029,311.142273 768.643433,331.955902 773.171143,353.307495
	C778.745667,379.595215 781.424927,406.131653 781.023010,432.879913
	C780.774231,449.431274 778.979919,466.006012 777.062622,482.475159
	C773.935669,509.335602 766.599670,535.217346 757.009949,560.447388
	C748.633240,582.485962 737.885498,603.356384 725.397400,623.354492
	C713.856384,641.836060 700.780762,659.192200 685.928345,675.065613
	C675.414673,686.301880 663.795593,696.503845 652.357544,707.337708
z"/>
<path fill="#fff" opacity="1.000000" stroke="none"
	d="
M840.528992,162.572037
	C824.431030,174.948593 806.662231,180.801849 786.671814,179.077866
	C766.203064,177.312637 748.954956,168.702042 735.789551,152.991287
	C719.507874,133.561707 714.288879,110.832001 720.394531,86.446350
	C728.049377,55.873520 752.372253,35.076504 782.976379,30.756170
	C800.314209,28.308619 816.671265,31.538282 831.220886,40.523281
	C853.635437,54.365101 866.124695,74.820290 867.239136,101.603844
	C868.259644,126.131851 858.998596,146.189224 840.528992,162.572037
z"/>
<path fill="#fff" opacity="1.000000" stroke="none"
	d="
M147.454590,964.999634
	C147.454971,946.033508 147.454971,927.567261 147.454971,908.453796
	C152.028381,908.453796 156.143723,908.222229 160.200089,908.609009
	C161.276566,908.711609 162.643112,910.558472 163.076874,911.869080
	C167.036041,923.831299 170.818420,935.852051 175.017975,949.000183
	C175.874878,946.662415 176.451584,945.260132 176.906967,943.819519
	C180.267014,933.190430 183.722031,922.588806 186.866241,911.895935
	C187.698624,909.065063 189.051666,908.182251 191.808075,908.325317
	C195.260376,908.504456 198.729050,908.368408 202.448547,908.368408
	C202.448547,934.140259 202.448547,959.359009 202.448547,984.803894
	C198.682571,984.803894 195.241913,984.803894 191.585327,984.803894
	C191.585327,965.418274 191.585327,946.187805 191.585327,926.111572
	C189.217484,933.333923 187.111847,939.931641 184.885864,946.488464
	C183.227539,951.373230 181.314835,956.172852 179.710266,961.074097
	C178.902267,963.542297 177.922318,964.887634 174.901947,964.920044
	C171.752167,964.953613 170.949707,963.289795 170.166458,960.944336
	C166.794449,950.847046 163.373718,940.765930 159.944214,930.687988
	C159.519836,929.440857 158.936676,928.247803 157.914001,927.334045
	C158.265778,936.869690 158.753784,946.402771 158.930923,955.941650
	C159.106659,965.404541 158.969360,974.873230 158.969360,984.674500
	C155.112717,984.674500 151.692932,984.674500 147.454193,984.674500
	C147.454193,978.337036 147.454193,971.918274 147.454590,964.999634
z"/>
<path fill="#fff" opacity="1.000000" stroke="none"
	d="
M546.512756,986.253052
	C534.135010,985.088257 526.579224,978.111877 522.587891,967.376160
	C517.424377,953.487427 517.358459,939.276184 522.746155,925.422607
	C527.008118,914.463318 535.099976,907.780457 547.201965,907.150024
	C559.782043,906.494751 569.322937,911.823303 574.473938,923.365601
	C581.408325,938.903748 581.192566,954.886902 574.314758,970.313721
	C569.204712,981.775452 559.604736,987.046082 546.512756,986.253052
M534.344604,958.913208
	C534.584106,959.881775 534.773071,960.866150 535.071167,961.816345
	C537.628967,969.971008 542.255981,974.216980 548.725403,974.377563
	C555.328369,974.541443 560.100403,970.871216 562.805603,962.472168
	C566.261841,951.741394 566.287598,940.762878 562.665283,930.080688
	C559.323303,920.225098 550.185303,915.886475 542.821350,920.936462
	C539.426941,923.264343 536.689270,927.547974 535.249451,931.522766
	C532.138672,940.110352 532.294434,949.150208 534.344604,958.913208
z"/>
<path fill="#fff" opacity="1.000000" stroke="none"
	d="
M429.460938,984.494507
	C429.123901,959.081299 429.123901,934.000244 429.123901,908.961670
	C429.951477,908.703064 430.409729,908.455811 430.881104,908.427734
	C442.730499,907.720642 442.730774,907.724731 442.730957,919.499512
	C442.731049,925.795898 442.730988,932.092285 442.730988,938.772400
	C451.369934,938.772400 459.583221,938.772400 468.523926,938.772400
	C468.523926,928.751099 468.523926,918.869934 468.523926,908.702148
	C473.469543,908.702148 477.690521,908.702148 482.066620,908.702148
	C482.066620,934.238098 482.066620,959.441956 482.066620,984.834595
	C477.613464,984.834595 473.490692,984.834595 468.551208,984.834595
	C468.551208,977.645081 468.551208,970.536499 468.551208,963.427979
	C468.551178,951.059814 468.551178,951.059875 455.960327,951.059998
	C451.820312,951.059998 447.680328,951.059937 442.841370,951.059937
	C442.841370,962.475891 442.841370,973.501404 442.841370,984.826538
	C438.026306,984.826538 433.912140,984.826538 429.460938,984.494507
z"/>
<path fill="#fff" opacity="1.000000" stroke="none"
	d="
M818.021118,985.005615
	C814.041870,985.005676 810.557922,985.005676 806.709412,985.005676
	C806.600464,983.240723 806.433228,981.784912 806.432312,980.328979
	C806.418213,958.002380 806.530212,935.674805 806.332825,913.349976
	C806.297058,909.305237 807.472107,908.269653 811.411194,908.351746
	C824.730347,908.629578 838.060669,908.702209 851.379456,908.456482
	C855.160339,908.386719 856.075684,909.643616 855.759949,912.996765
	C855.561768,915.102112 855.723022,917.241272 855.723022,919.976868
	C845.403809,919.976868 835.617554,920.232361 825.854614,919.866089
	C821.173462,919.690430 819.958191,921.169434 820.038635,925.726501
	C820.280273,939.421509 820.093689,939.424866 833.898315,939.425171
	C839.042847,939.425232 844.187378,939.425110 849.721924,939.425110
	C849.721924,943.286682 849.721924,946.809753 849.721924,950.970398
	C841.660095,950.970398 833.706177,951.197571 825.774231,950.878845
	C821.513184,950.707642 819.717468,951.743958 820.051453,956.349976
	C820.445068,961.778015 820.143738,967.256531 820.143738,973.418396
	C832.567810,973.418396 844.454163,973.418396 856.568848,973.418396
	C856.568848,977.550354 856.568848,980.968018 856.568848,985.005493
	C843.726318,985.005493 831.121399,985.005493 818.021118,985.005615
z"/>
<path fill="#fff" opacity="1.000000" stroke="none"
	d="
M629.730835,914.249023
	C629.740051,929.550415 629.647156,944.380798 629.794434,959.208679
	C629.892029,969.039917 634.939453,974.587402 643.158752,974.404602
	C651.192932,974.225891 655.968262,968.575378 656.063965,958.590149
	C656.206116,943.762207 656.110474,928.931885 656.115906,914.102600
	C656.116516,912.452576 656.116028,910.802612 656.116028,908.766113
	C660.507996,908.766113 664.574707,908.766113 669.458679,908.766113
	C669.458679,915.670471 669.522034,922.462463 669.444397,929.252808
	C669.316772,940.408081 669.539368,951.591370 668.809448,962.709961
	C667.819275,977.792725 658.344177,986.247253 643.293213,986.454163
	C627.825562,986.666748 617.297058,978.564941 616.462830,963.485535
	C615.462646,945.406311 616.226624,927.229553 616.226624,908.403381
	C619.913330,908.403381 623.539185,908.270569 627.150879,908.439392
	C631.039856,908.621277 629.293579,911.783203 629.730835,914.249023
z"/>
<path fill="#fff" opacity="1.000000" stroke="none"
	d="
M757.609375,948.377747
	C768.525208,958.754089 766.482666,974.718445 753.565613,982.347046
	C740.506775,990.059326 718.792297,986.659912 708.075195,974.922424
	C710.415100,972.077026 712.800110,969.176758 715.318176,966.114746
	C718.832642,968.148071 721.885681,970.821045 725.396484,971.734619
	C730.747925,973.127197 736.421082,973.864563 741.948303,973.816284
	C746.350403,973.777771 749.859253,970.986023 750.597900,966.206238
	C751.312439,961.582275 748.618896,958.551453 744.780640,956.720581
	C738.926758,953.928223 732.891479,951.518738 726.966492,948.872375
	C721.262878,946.324768 715.973206,943.154175 713.044189,937.328430
	C708.695496,928.679016 711.665894,918.155212 719.982300,912.112732
	C731.492004,903.750122 752.044006,906.039062 762.062805,917.172058
	C759.995544,919.765991 757.868896,922.434509 756.055481,924.710022
	C750.775146,922.773254 746.117676,920.449646 741.193054,919.470947
	C737.804932,918.797607 733.677368,919.184631 730.572205,920.607605
	C728.177490,921.705017 725.810303,924.984619 725.398499,927.603394
	C725.079651,929.631470 727.260620,933.073608 729.282898,934.250305
	C734.567078,937.325195 740.420410,939.405151 745.956055,942.070435
	C749.827087,943.934326 753.548401,946.109131 757.609375,948.377747
z"/>
<path fill="#fff" opacity="1.000000" stroke="none"
	d="
M285.483368,938.574707
	C277.135712,951.474915 273.620636,965.147583 275.475250,980.123047
	C275.653351,981.561096 275.353699,983.058289 275.263000,984.770264
	C270.895844,984.770264 266.793121,984.770264 261.875824,984.770264
	C261.875824,980.525391 261.390137,976.214294 261.970490,972.051758
	C263.474304,961.265442 258.940338,952.355347 254.165878,943.318726
	C248.263199,932.146851 242.730103,920.779785 236.533066,908.497620
	C241.480850,908.497620 245.716324,908.191895 249.856598,908.685303
	C251.086868,908.831909 252.362915,911.076477 253.084641,912.610596
	C258.253601,923.598267 263.284821,934.650635 268.800690,946.640869
	C271.654785,940.513184 274.224701,935.055542 276.742157,929.573792
	C279.242889,924.128540 281.891235,918.738159 284.090698,913.171936
	C285.525757,909.540283 287.549866,907.840820 291.573029,908.380188
	C294.160004,908.726929 296.831207,908.445190 300.582947,908.445190
	C295.376465,918.850525 290.522705,928.550964 285.483368,938.574707
z"/>
</svg>
